<mxfile host="app.diagrams.net" modified="2024-02-24T23:13:03.768Z" agent="Mozilla/5.0 (Macintosh; Intel Mac OS X 10_15_7) AppleWebKit/537.36 (KHTML, like Gecko) Chrome/120.0.0.0 Safari/537.36" etag="cP2W5x9jpSbjearQxgKF" version="23.1.6" type="device">
  <diagram name="youtubeChatAI" id="OdCN1yytbfYSz6CbzW1o">
    <mxGraphModel dx="858" dy="487" grid="1" gridSize="10" guides="1" tooltips="1" connect="1" arrows="1" fold="1" page="1" pageScale="1" pageWidth="850" pageHeight="1100" math="0" shadow="0">
      <root>
        <mxCell id="WnTQ4Z6a-Ea_7mhcwyWi-0" />
        <mxCell id="WnTQ4Z6a-Ea_7mhcwyWi-1" parent="WnTQ4Z6a-Ea_7mhcwyWi-0" />
        <mxCell id="HtLDFk02XIdqE0k4USw7-0" value="" style="shape=ext;double=1;rounded=0;whiteSpace=wrap;html=1;fillColor=#dae8fc;strokeColor=#6c8ebf;" vertex="1" parent="WnTQ4Z6a-Ea_7mhcwyWi-1">
          <mxGeometry x="70" y="100" width="750" height="430" as="geometry" />
        </mxCell>
        <mxCell id="WnTQ4Z6a-Ea_7mhcwyWi-2" value="&lt;br&gt;&lt;br&gt;&amp;nbsp; Amazon EC2" style="sketch=0;outlineConnect=0;fontColor=#232F3E;gradientColor=none;strokeColor=#ffffff;fillColor=#232F3E;dashed=0;verticalLabelPosition=middle;verticalAlign=bottom;align=center;html=1;whiteSpace=wrap;fontSize=10;fontStyle=1;spacing=3;shape=mxgraph.aws4.productIcon;prIcon=mxgraph.aws4.ec2;" vertex="1" parent="WnTQ4Z6a-Ea_7mhcwyWi-1">
          <mxGeometry x="460" y="410" width="60" height="90" as="geometry" />
        </mxCell>
        <mxCell id="WnTQ4Z6a-Ea_7mhcwyWi-3" value="AWS Elastic Beanstalk" style="sketch=0;outlineConnect=0;fontColor=#232F3E;gradientColor=none;strokeColor=#ffffff;fillColor=#232F3E;dashed=0;verticalLabelPosition=middle;verticalAlign=bottom;align=center;html=1;whiteSpace=wrap;fontSize=10;fontStyle=1;spacing=3;shape=mxgraph.aws4.productIcon;prIcon=mxgraph.aws4.elastic_beanstalk;" vertex="1" parent="WnTQ4Z6a-Ea_7mhcwyWi-1">
          <mxGeometry x="445" y="240" width="80" height="110" as="geometry" />
        </mxCell>
        <mxCell id="WnTQ4Z6a-Ea_7mhcwyWi-4" value="AWS CodePipeline" style="sketch=0;outlineConnect=0;fontColor=#232F3E;gradientColor=none;strokeColor=#ffffff;fillColor=#232F3E;dashed=0;verticalLabelPosition=middle;verticalAlign=bottom;align=center;html=1;whiteSpace=wrap;fontSize=10;fontStyle=1;spacing=3;shape=mxgraph.aws4.productIcon;prIcon=mxgraph.aws4.codepipeline;" vertex="1" parent="WnTQ4Z6a-Ea_7mhcwyWi-1">
          <mxGeometry x="270" y="240" width="80" height="110" as="geometry" />
        </mxCell>
        <mxCell id="WnTQ4Z6a-Ea_7mhcwyWi-5" value="Amazon S3" style="sketch=0;outlineConnect=0;fontColor=#232F3E;gradientColor=none;strokeColor=#ffffff;fillColor=#232F3E;dashed=0;verticalLabelPosition=middle;verticalAlign=bottom;align=center;html=1;whiteSpace=wrap;fontSize=10;fontStyle=1;spacing=3;shape=mxgraph.aws4.productIcon;prIcon=mxgraph.aws4.s3;" vertex="1" parent="WnTQ4Z6a-Ea_7mhcwyWi-1">
          <mxGeometry x="285" y="410" width="50" height="80" as="geometry" />
        </mxCell>
        <mxCell id="WnTQ4Z6a-Ea_7mhcwyWi-6" value="Amazon Route 53" style="sketch=0;outlineConnect=0;fontColor=#232F3E;gradientColor=none;strokeColor=#ffffff;fillColor=#232F3E;dashed=0;verticalLabelPosition=middle;verticalAlign=bottom;align=center;html=1;whiteSpace=wrap;fontSize=10;fontStyle=1;spacing=3;shape=mxgraph.aws4.productIcon;prIcon=mxgraph.aws4.route_53;" vertex="1" parent="WnTQ4Z6a-Ea_7mhcwyWi-1">
          <mxGeometry x="610" y="240" width="80" height="110" as="geometry" />
        </mxCell>
        <mxCell id="WnTQ4Z6a-Ea_7mhcwyWi-7" value="AWS Certificate Manager" style="sketch=0;outlineConnect=0;fontColor=#232F3E;gradientColor=none;strokeColor=#ffffff;fillColor=#232F3E;dashed=0;verticalLabelPosition=middle;verticalAlign=bottom;align=center;html=1;whiteSpace=wrap;fontSize=10;fontStyle=1;spacing=3;shape=mxgraph.aws4.productIcon;prIcon=mxgraph.aws4.certificate_manager_3;" vertex="1" parent="WnTQ4Z6a-Ea_7mhcwyWi-1">
          <mxGeometry x="550" y="130" width="70" height="100" as="geometry" />
        </mxCell>
        <mxCell id="WnTQ4Z6a-Ea_7mhcwyWi-8" value="Amazon Cloudfront" style="sketch=0;outlineConnect=0;fontColor=#232F3E;gradientColor=none;strokeColor=#ffffff;fillColor=#232F3E;dashed=0;verticalLabelPosition=middle;verticalAlign=bottom;align=center;html=1;whiteSpace=wrap;fontSize=10;fontStyle=1;spacing=3;shape=mxgraph.aws4.productIcon;prIcon=mxgraph.aws4.cloudfront;" vertex="1" parent="WnTQ4Z6a-Ea_7mhcwyWi-1">
          <mxGeometry x="680" y="130" width="70" height="100" as="geometry" />
        </mxCell>
        <mxCell id="WnTQ4Z6a-Ea_7mhcwyWi-10" value="" style="dashed=0;outlineConnect=0;html=1;align=center;labelPosition=center;verticalLabelPosition=bottom;verticalAlign=top;shape=mxgraph.weblogos.github" vertex="1" parent="WnTQ4Z6a-Ea_7mhcwyWi-1">
          <mxGeometry x="130" y="400" width="75" height="75" as="geometry" />
        </mxCell>
        <mxCell id="WnTQ4Z6a-Ea_7mhcwyWi-11" value="" style="endArrow=classic;html=1;rounded=0;" edge="1" parent="WnTQ4Z6a-Ea_7mhcwyWi-1">
          <mxGeometry width="50" height="50" relative="1" as="geometry">
            <mxPoint x="185" y="400" as="sourcePoint" />
            <mxPoint x="265" y="320" as="targetPoint" />
          </mxGeometry>
        </mxCell>
        <mxCell id="WnTQ4Z6a-Ea_7mhcwyWi-16" value="" style="endArrow=classic;html=1;rounded=0;" edge="1" parent="WnTQ4Z6a-Ea_7mhcwyWi-1">
          <mxGeometry width="50" height="50" relative="1" as="geometry">
            <mxPoint x="309.5" y="400" as="sourcePoint" />
            <mxPoint x="309.5" y="360" as="targetPoint" />
          </mxGeometry>
        </mxCell>
        <mxCell id="WnTQ4Z6a-Ea_7mhcwyWi-20" value="" style="endArrow=classic;html=1;rounded=0;" edge="1" parent="WnTQ4Z6a-Ea_7mhcwyWi-1">
          <mxGeometry width="50" height="50" relative="1" as="geometry">
            <mxPoint x="540" y="280" as="sourcePoint" />
            <mxPoint x="600" y="280" as="targetPoint" />
          </mxGeometry>
        </mxCell>
        <mxCell id="WnTQ4Z6a-Ea_7mhcwyWi-21" value="" style="endArrow=classic;html=1;rounded=0;" edge="1" parent="WnTQ4Z6a-Ea_7mhcwyWi-1">
          <mxGeometry width="50" height="50" relative="1" as="geometry">
            <mxPoint x="300" y="360" as="sourcePoint" />
            <mxPoint x="300" y="400" as="targetPoint" />
          </mxGeometry>
        </mxCell>
        <mxCell id="WnTQ4Z6a-Ea_7mhcwyWi-22" value="" style="endArrow=classic;html=1;rounded=0;" edge="1" parent="WnTQ4Z6a-Ea_7mhcwyWi-1">
          <mxGeometry width="50" height="50" relative="1" as="geometry">
            <mxPoint x="489.25" y="400" as="sourcePoint" />
            <mxPoint x="489.25" y="360" as="targetPoint" />
          </mxGeometry>
        </mxCell>
        <mxCell id="WnTQ4Z6a-Ea_7mhcwyWi-23" value="" style="endArrow=classic;html=1;rounded=0;" edge="1" parent="WnTQ4Z6a-Ea_7mhcwyWi-1">
          <mxGeometry width="50" height="50" relative="1" as="geometry">
            <mxPoint x="479.75" y="360" as="sourcePoint" />
            <mxPoint x="479.75" y="400" as="targetPoint" />
          </mxGeometry>
        </mxCell>
        <mxCell id="WnTQ4Z6a-Ea_7mhcwyWi-24" value="" style="endArrow=classic;html=1;rounded=0;" edge="1" parent="WnTQ4Z6a-Ea_7mhcwyWi-1">
          <mxGeometry width="50" height="50" relative="1" as="geometry">
            <mxPoint x="370" y="280" as="sourcePoint" />
            <mxPoint x="430" y="280" as="targetPoint" />
          </mxGeometry>
        </mxCell>
        <mxCell id="6AvuD6jutoS3DAfwq7Gx-0" value="" style="endArrow=none;dashed=1;html=1;rounded=0;" edge="1" parent="WnTQ4Z6a-Ea_7mhcwyWi-1">
          <mxGeometry width="50" height="50" relative="1" as="geometry">
            <mxPoint x="650" y="240" as="sourcePoint" />
            <mxPoint x="680" y="180" as="targetPoint" />
            <Array as="points">
              <mxPoint x="620" y="180" />
            </Array>
          </mxGeometry>
        </mxCell>
        <mxCell id="6AvuD6jutoS3DAfwq7Gx-1" value="" style="endArrow=none;dashed=1;html=1;rounded=0;" edge="1" parent="WnTQ4Z6a-Ea_7mhcwyWi-1">
          <mxGeometry width="50" height="50" relative="1" as="geometry">
            <mxPoint x="650" y="240" as="sourcePoint" />
            <mxPoint x="680" y="180" as="targetPoint" />
          </mxGeometry>
        </mxCell>
      </root>
    </mxGraphModel>
  </diagram>
</mxfile>
